<?xml version="1.0" standalone="no"?>
<!DOCTYPE svg PUBLIC "-//W3C//DTD SVG 20010904//EN"
 "http://www.w3.org/TR/2001/REC-SVG-20010904/DTD/svg10.dtd">
<svg version="1.0" xmlns="http://www.w3.org/2000/svg"
 width="700.000000pt" height="700.000000pt" viewBox="0 0 700.000000 700.000000"
 preserveAspectRatio="xMidYMid meet">
<metadata>
Created by potrace 1.11, written by Peter Selinger 2001-2013
</metadata>
<g transform="translate(0.000000,700.000000) scale(0.100000,-0.100000)"
fill="#000000" stroke="none">
<path d="M3278 6995 c-2 -1 -37 -5 -78 -9 -80 -6 -219 -23 -260 -31 -14 -3
-41 -8 -60 -11 -19 -4 -44 -8 -55 -10 -11 -3 -33 -7 -50 -10 -68 -12 -238 -58
-354 -96 -920 -299 -1666 -955 -2085 -1833 -122 -255 -221 -560 -271 -830 -10
-49 -18 -97 -20 -105 -2 -9 -6 -43 -10 -75 -4 -33 -9 -69 -11 -79 -25 -139
-25 -674 0 -813 2 -10 7 -45 11 -78 4 -32 9 -68 11 -80 2 -11 7 -36 10 -55 28
-176 114 -476 194 -677 95 -237 196 -428 346 -653 430 -646 1084 -1140 1833
-1381 69 -22 133 -42 141 -44 8 -2 62 -15 120 -28 107 -26 244 -52 315 -62 22
-2 56 -7 75 -10 196 -28 643 -27 854 2 34 4 196 32 341 59 55 11 329 92 425
128 386 140 780 371 1080 631 106 91 297 283 365 365 21 25 41 47 45 50 21 15
211 279 281 392 284 457 456 964 512 1513 14 129 15 570 3 665 -3 25 -11 81
-16 125 -6 44 -12 89 -14 100 -2 11 -11 61 -21 110 -176 942 -758 1788 -1586
2306 -420 263 -972 457 -1439 505 -30 3 -68 8 -85 10 -34 6 -542 14 -547 9z
m449 -549 c45 -4 90 -8 100 -10 10 -2 45 -7 78 -11 32 -4 68 -9 80 -11 11 -2
36 -7 55 -10 19 -3 82 -16 140 -30 675 -158 1272 -550 1691 -1111 46 -61 93
-127 104 -145 11 -18 30 -49 42 -68 144 -229 297 -587 349 -815 1 -5 11 -50
23 -100 25 -109 26 -117 48 -275 27 -201 24 -583 -7 -773 -6 -37 -12 -79 -14
-95 -16 -110 -71 -328 -117 -459 -142 -404 -342 -738 -632 -1055 -70 -76 -74
-78 -122 -58 -30 13 -258 84 -359 111 l-88 24 -38 76 c-47 93 -96 158 -168
226 -46 43 -151 114 -186 126 -6 2 1 52 18 128 15 68 30 135 32 149 3 14 15
72 27 130 l22 105 34 2 c85 7 181 48 207 89 11 16 20 60 25 120 7 80 21 133
88 332 44 130 86 273 95 317 17 93 15 231 -4 293 -19 62 -76 121 -121 129 -33
5 -42 1 -83 -37 -25 -23 -55 -58 -67 -76 -11 -19 -24 -34 -28 -34 -4 0 -2 27
5 59 6 32 15 83 18 112 4 29 9 62 11 73 2 12 7 44 10 71 4 28 8 61 10 75 11
87 19 236 19 365 0 220 -10 318 -54 510 -71 310 -72 581 -4 817 5 16 3 16 -31
2 -68 -28 -115 -21 -245 38 -171 78 -279 192 -280 296 l0 34 -46 -41 c-56 -49
-123 -89 -161 -97 -24 -4 -37 4 -88 51 -75 70 -193 131 -272 141 -32 4 -65 8
-73 9 -51 7 -230 -48 -278 -85 -32 -26 -43 -25 -33 3 9 25 7 123 -4 164 -6 25
-9 22 -47 -48 -48 -89 -77 -129 -139 -191 -71 -70 -95 -80 -153 -63 -97 29
-201 2 -267 -71 -59 -63 -80 -81 -123 -102 -45 -22 -120 -37 -137 -26 -19 11
33 54 73 60 62 10 32 25 -45 23 -44 -1 -91 -10 -120 -22 -110 -46 -199 -164
-252 -331 -5 -18 -7 -18 -19 6 -26 50 -57 142 -61 181 -3 22 -7 42 -9 44 -3 3
-14 -25 -25 -62 -32 -102 -27 -209 14 -308 7 -16 4 -16 -27 3 -39 22 -128 52
-128 42 0 -4 20 -20 45 -35 138 -88 221 -283 158 -373 -74 -105 -148 -332
-167 -514 -4 -30 -9 -77 -12 -104 -12 -96 -4 -466 11 -526 2 -8 7 -44 10 -80
3 -36 8 -74 11 -85 3 -11 -8 0 -24 25 -37 56 -90 114 -120 129 -48 25 -123
-24 -156 -103 -19 -45 -28 -103 -27 -166 3 -142 25 -230 135 -543 47 -134 57
-173 61 -249 4 -67 11 -100 25 -124 23 -36 87 -72 147 -81 45 -7 75 -21 69
-31 -3 -5 11 -84 30 -177 19 -94 37 -183 40 -200 3 -16 16 -71 30 -121 13 -51
24 -94 24 -96 0 -3 -24 -20 -52 -38 -108 -70 -293 -282 -361 -416 -15 -28 -23
-32 -74 -39 -76 -9 -80 -10 -216 -41 l-119 -28 -90 95 c-388 404 -668 937
-768 1459 -6 30 -13 66 -15 80 -3 14 -8 43 -11 65 -3 22 -7 51 -10 65 -13 79
-19 188 -19 375 0 273 9 370 60 630 36 188 131 463 231 671 48 99 175 318 222
384 132 181 212 278 328 395 113 114 159 155 264 239 47 37 92 73 100 79 25
21 213 143 250 163 19 10 37 22 40 25 8 9 312 156 340 164 14 4 43 16 65 26
126 56 456 140 650 165 28 3 59 8 70 10 11 2 70 7 130 10 61 4 111 7 112 8 5
4 249 -2 320 -8z"/>
</g>
</svg>
