<svg width="50" height="50" viewBox="0 0 50 50" fill="none" xmlns="http://www.w3.org/2000/svg">
<circle cx="25" cy="25" r="24" fill="white" stroke="#245A50" stroke-width="2"/>
<path d="M15.6442 13.1777C13.8352 13.1777 12.6523 14.3657 12.6523 15.927C12.6523 17.4539 13.7999 18.6757 15.5748 18.6757H15.6091C17.4536 18.6757 18.6015 17.4539 18.6015 15.927C18.567 14.3657 17.4536 13.1777 15.6442 13.1777Z" fill="#245A50"/>
<path d="M12.9648 20.8486H18.2535V36.7598H12.9648V20.8486Z" fill="#245A50"/>
<path d="M31.2347 20.4746C28.3816 20.4746 26.4685 23.1555 26.4685 23.1555V20.848H21.1797V36.7593H26.4682V27.8738C26.4682 27.3981 26.5027 26.9232 26.6424 26.583C27.0248 25.6332 27.8948 24.6491 29.3559 24.6491C31.2696 24.6491 32.035 26.1083 32.035 28.2473V36.7593H37.3232V27.6361C37.3232 22.7488 34.714 20.4746 31.2347 20.4746Z" fill="#245A50"/>
</svg>
