<svg width="50" height="50" viewBox="0 0 50 50" fill="none" xmlns="http://www.w3.org/2000/svg">
<circle cx="25" cy="25" r="25" fill="white"/>
<path d="M15.6442 13.1787C13.8352 13.1787 12.6523 14.3666 12.6523 15.928C12.6523 17.4549 13.7999 18.6767 15.5748 18.6767H15.6091C17.4536 18.6767 18.6015 17.4549 18.6015 15.928C18.567 14.3666 17.4536 13.1787 15.6442 13.1787V13.1787Z" fill="#21468B"/>
<path d="M12.9644 20.8491H18.253V36.7603H12.9644V20.8491Z" fill="#21468B"/>
<path d="M31.2352 20.4756C28.3821 20.4756 26.469 23.1565 26.469 23.1565V20.849H21.1802V36.7602H26.4687V27.8748C26.4687 27.3991 26.5032 26.9242 26.6429 26.584C27.0252 25.6342 27.8953 24.6501 29.3564 24.6501C31.2701 24.6501 32.0355 26.1092 32.0355 28.2482V36.7602H37.3237V27.637C37.3237 22.7498 34.7145 20.4756 31.2352 20.4756V20.4756Z" fill="#21468B"/>
</svg>
