<svg width="50" height="50" viewBox="0 0 50 50" fill="none" xmlns="http://www.w3.org/2000/svg">
<circle cx="25" cy="25" r="24.5" fill="white" stroke="#A95B00"/>
<path d="M15.6432 13.1797C13.8342 13.1797 12.6514 14.3676 12.6514 15.929C12.6514 17.4559 13.7989 18.6777 15.5738 18.6777H15.6082C17.4526 18.6777 18.6005 17.4559 18.6005 15.929C18.566 14.3676 17.4526 13.1797 15.6432 13.1797Z" fill="#A95B00"/>
<path d="M12.9639 20.8516H18.2525V36.7628H12.9639V20.8516Z" fill="#A95B00"/>
<path d="M31.2347 20.4766C28.3816 20.4766 26.4685 23.1575 26.4685 23.1575V20.85H21.1797V36.7612H26.4682V27.8758C26.4682 27.4001 26.5027 26.9252 26.6424 26.585C27.0248 25.6351 27.8948 24.6511 29.3559 24.6511C31.2696 24.6511 32.035 26.1102 32.035 28.2492V36.7612H37.3232V27.638C37.3232 22.7508 34.714 20.4766 31.2347 20.4766Z" fill="#A95B00"/>
</svg>
