<svg width="50" height="50" viewBox="0 0 50 50" fill="none" xmlns="http://www.w3.org/2000/svg">
<circle cx="25" cy="25" r="25" fill="#ED962F"/>
<path d="M15.6437 13.1797C13.8347 13.1797 12.6519 14.3676 12.6519 15.929C12.6519 17.4559 13.7994 18.6777 15.5743 18.6777H15.6086C17.4531 18.6777 18.601 17.4559 18.601 15.929C18.5665 14.3676 17.4531 13.1797 15.6437 13.1797Z" fill="white"/>
<path d="M12.9641 20.8516H18.2528V36.7628H12.9641V20.8516Z" fill="white"/>
<path d="M31.2347 20.4766C28.3816 20.4766 26.4685 23.1575 26.4685 23.1575V20.85H21.1797V36.7612H26.4682V27.8758C26.4682 27.4001 26.5027 26.9252 26.6424 26.585C27.0248 25.6351 27.8948 24.6511 29.3559 24.6511C31.2696 24.6511 32.035 26.1102 32.035 28.2492V36.7612H37.3232V27.638C37.3232 22.7508 34.714 20.4766 31.2347 20.4766Z" fill="white"/>
</svg>
