<svg width="50" height="50" viewBox="0 0 50 50" fill="none" xmlns="http://www.w3.org/2000/svg">
<circle cx="25" cy="25" r="24" fill="black" stroke="#F77F00" stroke-width="2"/>
<path d="M15.6481 13.1797C13.8391 13.1797 12.6562 14.3676 12.6562 15.929C12.6562 17.4559 13.8038 18.6777 15.5787 18.6777H15.613C17.4575 18.6777 18.6054 17.4559 18.6054 15.929C18.5709 14.3676 17.4575 13.1797 15.6481 13.1797V13.1797Z" fill="#F77F00"/>
<path d="M12.9688 20.8516H18.2574V36.7628H12.9688V20.8516Z" fill="#F77F00"/>
<path d="M31.2347 20.4766C28.3816 20.4766 26.4685 23.1575 26.4685 23.1575V20.85H21.1797V36.7612H26.4682V27.8758C26.4682 27.4001 26.5027 26.9252 26.6424 26.585C27.0248 25.6351 27.8948 24.6511 29.3559 24.6511C31.2696 24.6511 32.035 26.1102 32.035 28.2492V36.7612H37.3232V27.638C37.3232 22.7508 34.714 20.4766 31.2347 20.4766V20.4766Z" fill="#F77F00"/>
</svg>
