<svg width="50" height="50" viewBox="0 0 50 50" fill="none" xmlns="http://www.w3.org/2000/svg">
<circle cx="25" cy="25" r="24.5" fill="white" stroke="#252525"/>
<path d="M15.6442 13.1797C13.8352 13.1797 12.6523 14.3676 12.6523 15.929C12.6523 17.4559 13.7999 18.6777 15.5748 18.6777H15.6091C17.4536 18.6777 18.6015 17.4559 18.6015 15.929C18.567 14.3676 17.4536 13.1797 15.6442 13.1797Z" fill="#252525"/>
<path d="M12.9644 20.8516H18.253V36.7628H12.9644V20.8516Z" fill="#252525"/>
<path d="M31.2352 20.4766C28.3821 20.4766 26.469 23.1575 26.469 23.1575V20.85H21.1802V36.7612H26.4687V27.8758C26.4687 27.4001 26.5032 26.9252 26.6429 26.585C27.0252 25.6351 27.8953 24.6511 29.3564 24.6511C31.2701 24.6511 32.0355 26.1102 32.0355 28.2492V36.7612H37.3237V27.638C37.3237 22.7508 34.7145 20.4766 31.2352 20.4766Z" fill="#252525"/>
</svg>
