<svg width="50" height="50" viewBox="0 0 50 50" fill="none" xmlns="http://www.w3.org/2000/svg">
<circle cx="25" cy="25" r="24.5" fill="white" stroke="#FFA666"/>
<path d="M15.6442 13.1777C13.8352 13.1777 12.6523 14.3657 12.6523 15.927C12.6523 17.4539 13.7999 18.6757 15.5748 18.6757H15.6091C17.4536 18.6757 18.6015 17.4539 18.6015 15.927C18.567 14.3657 17.4536 13.1777 15.6442 13.1777V13.1777Z" fill="#FFA666"/>
<path d="M12.9644 20.8486H18.253V36.7598H12.9644V20.8486Z" fill="#FFA666"/>
<path d="M31.2352 20.4746C28.3821 20.4746 26.469 23.1555 26.469 23.1555V20.848H21.1802V36.7593H26.4687V27.8738C26.4687 27.3981 26.5032 26.9232 26.6429 26.583C27.0252 25.6332 27.8953 24.6491 29.3564 24.6491C31.2701 24.6491 32.0355 26.1083 32.0355 28.2473V36.7593H37.3237V27.6361C37.3237 22.7488 34.7145 20.4746 31.2352 20.4746V20.4746Z" fill="#FFA666"/>
</svg>
