<svg width="50" height="50" viewBox="0 0 50 50" fill="none" xmlns="http://www.w3.org/2000/svg">
<circle cx="25" cy="25" r="25" fill="#D58628"/>
<path d="M15.6442 13.1797C13.8352 13.1797 12.6523 14.3676 12.6523 15.929C12.6523 17.4559 13.7999 18.6777 15.5748 18.6777H15.6091C17.4536 18.6777 18.6015 17.4559 18.6015 15.929C18.567 14.3676 17.4536 13.1797 15.6442 13.1797Z" fill="white"/>
<path d="M12.9648 20.8516H18.2535V36.7628H12.9648V20.8516Z" fill="white"/>
<path d="M31.2347 20.4766C28.3816 20.4766 26.4685 23.1575 26.4685 23.1575V20.85H21.1797V36.7612H26.4682V27.8758C26.4682 27.4001 26.5027 26.9252 26.6424 26.585C27.0248 25.6351 27.8948 24.6511 29.3559 24.6511C31.2696 24.6511 32.035 26.1102 32.035 28.2492V36.7612H37.3232V27.638C37.3232 22.7508 34.714 20.4766 31.2347 20.4766Z" fill="white"/>
</svg>
