<svg width="50" height="50" viewBox="0 0 50 50" fill="none" xmlns="http://www.w3.org/2000/svg">
<circle cx="25" cy="25" r="24.5" fill="white" stroke="#4765FF"/>
<path d="M15.6437 13.1787C13.8347 13.1787 12.6519 14.3666 12.6519 15.928C12.6519 17.4549 13.7994 18.6767 15.5743 18.6767H15.6086C17.4531 18.6767 18.601 17.4549 18.601 15.928C18.5665 14.3666 17.4531 13.1787 15.6437 13.1787Z" fill="#4765FF"/>
<path d="M12.9641 20.8491H18.2528V36.7603H12.9641V20.8491Z" fill="#4765FF"/>
<path d="M31.2347 20.4756C28.3816 20.4756 26.4685 23.1565 26.4685 23.1565V20.849H21.1797V36.7602H26.4682V27.8748C26.4682 27.3991 26.5027 26.9242 26.6424 26.584C27.0248 25.6342 27.8948 24.6501 29.3559 24.6501C31.2696 24.6501 32.035 26.1092 32.035 28.2482V36.7602H37.3232V27.637C37.3232 22.7498 34.714 20.4756 31.2347 20.4756Z" fill="#4765FF"/>
</svg>
