<svg width="50" height="50" viewBox="0 0 50 50" fill="none" xmlns="http://www.w3.org/2000/svg">
<circle cx="25" cy="25" r="24.5" fill="white" stroke="#8E7200"/>
<path d="M15.6432 13.1777C13.8342 13.1777 12.6514 14.3657 12.6514 15.927C12.6514 17.4539 13.7989 18.6757 15.5738 18.6757H15.6082C17.4526 18.6757 18.6005 17.4539 18.6005 15.927C18.566 14.3657 17.4526 13.1777 15.6432 13.1777Z" fill="#8E7200"/>
<path d="M12.9639 20.8477H18.2525V36.7589H12.9639V20.8477Z" fill="#8E7200"/>
<path d="M31.2347 20.4746C28.3816 20.4746 26.4685 23.1555 26.4685 23.1555V20.848H21.1797V36.7593H26.4682V27.8738C26.4682 27.3981 26.5027 26.9232 26.6424 26.583C27.0248 25.6332 27.8948 24.6491 29.3559 24.6491C31.2696 24.6491 32.035 26.1083 32.035 28.2473V36.7593H37.3232V27.6361C37.3232 22.7488 34.714 20.4746 31.2347 20.4746Z" fill="#8E7200"/>
</svg>
