<svg width="51" height="50" viewBox="0 0 51 50" fill="none" xmlns="http://www.w3.org/2000/svg">
<circle cx="25.4707" cy="25" r="25" fill="white"/>
<path d="M38.6302 17.0054C37.6516 17.4346 36.6089 17.7192 35.5217 17.8573C36.6401 17.1896 37.4937 16.1402 37.895 14.8754C36.8523 15.4971 35.701 15.9363 34.474 16.1814C33.4839 15.1271 32.0727 14.4741 30.5332 14.4741C27.5464 14.4741 25.1418 16.8985 25.1418 19.8705C25.1418 20.2981 25.1779 20.7093 25.2668 21.1008C20.7816 20.882 16.8128 18.7323 14.1467 15.4577C13.6812 16.2652 13.4082 17.1896 13.4082 18.1846C13.4082 20.0531 14.3704 21.7093 15.8046 22.6682C14.9378 22.6518 14.0875 22.4001 13.3671 22.0037C13.3671 22.0202 13.3671 22.0416 13.3671 22.0629C13.3671 24.6846 15.2372 26.8623 17.6895 27.3639C17.2503 27.484 16.7717 27.5416 16.275 27.5416C15.9296 27.5416 15.5809 27.5218 15.2536 27.4494C15.9526 29.586 17.9362 31.1567 20.2947 31.2077C18.4592 32.6435 16.1286 33.5087 13.6056 33.5087C13.1631 33.5087 12.7388 33.4889 12.3145 33.4346C14.7043 34.9758 17.5365 35.8557 20.5908 35.8557C30.5184 35.8557 35.946 27.632 35.946 20.5037C35.946 20.2652 35.9378 20.035 35.9263 19.8064C36.997 19.0465 37.8967 18.0975 38.6302 17.0054Z" fill="#667EFF"/>
</svg>
