<svg width="51" height="50" viewBox="0 0 51 50" fill="none" xmlns="http://www.w3.org/2000/svg">
<circle cx="25.4707" cy="25" r="24.5" fill="white" stroke="#92BE5C"/>
<path d="M20.3055 30.7063C18.4517 30.6662 16.8493 29.5897 16.0418 28.0369C16.1206 28.0392 16.1984 28.0401 16.275 28.0401C16.8094 28.0401 17.3331 27.9783 17.8213 27.8448L17.7897 26.8726C15.8006 26.4657 14.2339 24.8429 13.9232 22.805C14.5106 23.0231 15.1469 23.1543 15.7951 23.1666L17.5003 23.199L16.0825 22.2511C14.7808 21.3808 13.9082 19.8773 13.9082 18.1832C13.9082 17.5386 14.0344 16.926 14.2617 16.3598C16.9978 19.4077 20.8836 21.3861 25.2424 21.5987L25.9001 21.6308L25.7544 20.9887C25.6757 20.6419 25.6418 20.2692 25.6418 19.869C25.6418 17.1717 27.824 14.9727 30.5332 14.9727C31.9296 14.9727 33.2104 15.5648 34.1095 16.5222L34.2996 16.7246L34.5719 16.6702C35.3455 16.5157 36.0914 16.287 36.8017 15.9866C36.4023 16.5697 35.878 17.0608 35.2654 17.4266L35.5847 18.3519C36.1266 18.283 36.6586 18.1792 37.1782 18.0404C36.7127 18.5437 36.1991 18.9982 35.6369 19.3971L35.4131 19.556L35.4269 19.83C35.4382 20.0539 35.446 20.2752 35.446 20.5023C35.446 27.4155 30.1849 35.3542 20.5908 35.3542C18.3532 35.3542 16.2405 34.8666 14.3437 33.9835C16.6978 33.8319 18.8629 32.9611 20.6028 31.6L21.7065 30.7366L20.3055 30.7063Z" fill="#92BE5C" stroke="#92BE5C"/>
</svg>
