<svg width="51" height="50" viewBox="0 0 51 50" fill="none" xmlns="http://www.w3.org/2000/svg">
<circle cx="25.4688" cy="25" r="25" fill="#D58628"/>
<path d="M38.6283 17.0039C37.6497 17.4332 36.6069 17.7177 35.5197 17.8559C36.6382 17.1881 37.4918 16.1388 37.8931 14.874C36.8503 15.4957 35.699 15.9348 34.472 16.1799C33.4819 15.1256 32.0707 14.4727 30.5312 14.4727C27.5444 14.4727 25.1398 16.897 25.1398 19.869C25.1398 20.2967 25.176 20.7079 25.2648 21.0993C20.7796 20.8806 16.8109 18.7309 14.1447 15.4562C13.6793 16.2638 13.4063 17.1881 13.4063 18.1832C13.4063 20.0516 14.3684 21.7079 15.8026 22.6667C14.9359 22.6503 14.0855 22.3986 13.3651 22.0023C13.3651 22.0187 13.3651 22.0401 13.3651 22.0615C13.3651 24.6832 15.2352 26.8608 17.6875 27.3625C17.2484 27.4825 16.7697 27.5401 16.273 27.5401C15.9276 27.5401 15.5789 27.5204 15.2516 27.448C15.9507 29.5845 17.9342 31.1552 20.2928 31.2062C18.4572 32.6421 16.1266 33.5072 13.6036 33.5072C13.1612 33.5072 12.7368 33.4875 12.3125 33.4332C14.7023 34.9743 17.5345 35.8542 20.5888 35.8542C30.5164 35.8542 35.9441 27.6306 35.9441 20.5023C35.9441 20.2638 35.9359 20.0335 35.9243 19.8049C36.9951 19.045 37.8947 18.096 38.6283 17.0039Z" fill="white"/>
</svg>
