<svg width="51" height="50" viewBox="0 0 51 50" fill="none" xmlns="http://www.w3.org/2000/svg">
<circle cx="25.4707" cy="25" r="25" fill="#252525"/>
<path d="M38.6302 17.0039C37.6516 17.4332 36.6089 17.7177 35.5217 17.8559C36.6401 17.1881 37.4937 16.1388 37.895 14.874C36.8523 15.4957 35.701 15.9348 34.474 16.1799C33.4839 15.1256 32.0727 14.4727 30.5332 14.4727C27.5464 14.4727 25.1418 16.897 25.1418 19.869C25.1418 20.2967 25.1779 20.7079 25.2668 21.0993C20.7816 20.8806 16.8128 18.7309 14.1467 15.4562C13.6812 16.2638 13.4082 17.1881 13.4082 18.1832C13.4082 20.0516 14.3704 21.7079 15.8046 22.6667C14.9378 22.6503 14.0875 22.3986 13.3671 22.0023C13.3671 22.0187 13.3671 22.0401 13.3671 22.0615C13.3671 24.6832 15.2372 26.8608 17.6895 27.3625C17.2503 27.4825 16.7717 27.5401 16.275 27.5401C15.9296 27.5401 15.5809 27.5204 15.2536 27.448C15.9526 29.5845 17.9362 31.1552 20.2947 31.2062C18.4592 32.6421 16.1286 33.5072 13.6056 33.5072C13.1631 33.5072 12.7388 33.4875 12.3145 33.4332C14.7043 34.9743 17.5365 35.8542 20.5908 35.8542C30.5184 35.8542 35.946 27.6306 35.946 20.5023C35.946 20.2638 35.9378 20.0335 35.9263 19.8049C36.997 19.045 37.8967 18.096 38.6302 17.0039Z" fill="white"/>
</svg>
