<svg width="51" height="50" viewBox="0 0 51 50" fill="none" xmlns="http://www.w3.org/2000/svg">
<circle cx="25.4707" cy="25" r="24.5" fill="#21468B" stroke="white"/>
<path d="M38.6302 17.0059C37.6516 17.4351 36.6089 17.7197 35.5217 17.8578C36.6401 17.1901 37.4937 16.1407 37.895 14.8759C36.8523 15.4976 35.701 15.9368 34.474 16.1818C33.4839 15.1276 32.0727 14.4746 30.5332 14.4746C27.5464 14.4746 25.1418 16.899 25.1418 19.871C25.1418 20.2986 25.1779 20.7098 25.2668 21.1013C20.7816 20.8825 16.8128 18.7328 14.1467 15.4582C13.6812 16.2657 13.4082 17.1901 13.4082 18.1851C13.4082 20.0536 14.3704 21.7098 15.8046 22.6687C14.9378 22.6522 14.0875 22.4006 13.3671 22.0042C13.3671 22.0207 13.3671 22.042 13.3671 22.0634C13.3671 24.6851 15.2372 26.8628 17.6895 27.3644C17.2503 27.4845 16.7717 27.542 16.275 27.542C15.9296 27.542 15.5809 27.5223 15.2536 27.4499C15.9526 29.5865 17.9362 31.1572 20.2947 31.2082C18.4592 32.644 16.1286 33.5091 13.6056 33.5091C13.1631 33.5091 12.7388 33.4894 12.3145 33.4351C14.7043 34.9763 17.5365 35.8562 20.5908 35.8562C30.5184 35.8562 35.946 27.6325 35.946 20.5042C35.946 20.2657 35.9378 20.0355 35.9263 19.8068C36.997 19.047 37.8967 18.098 38.6302 17.0059Z" fill="white"/>
</svg>
