<svg width="51" height="50" viewBox="0 0 51 50" fill="none" xmlns="http://www.w3.org/2000/svg">
<circle cx="25.4707" cy="25" r="24.5" fill="white" stroke="#A966FF"/>
<path d="M20.3055 30.7083C18.4517 30.6682 16.8493 29.5916 16.0418 28.0389C16.1206 28.0411 16.1984 28.042 16.275 28.042C16.8094 28.042 17.3331 27.9802 17.8213 27.8467L17.7897 26.8746C15.8006 26.4677 14.2339 24.8448 13.9232 22.8069C14.5106 23.025 15.1469 23.1563 15.7951 23.1686L17.5003 23.201L16.0825 22.253C14.7808 21.3828 13.9082 19.8793 13.9082 18.1851C13.9082 17.5406 14.0344 16.928 14.2617 16.3618C16.9978 19.4096 20.8836 21.3881 25.2424 21.6007L25.9001 21.6327L25.7544 20.9906C25.6757 20.6439 25.6418 20.2711 25.6418 19.871C25.6418 17.1736 27.824 14.9746 30.5332 14.9746C31.9296 14.9746 33.2104 15.5668 34.1095 16.5241L34.2996 16.7265L34.5719 16.6722C35.3455 16.5177 36.0914 16.289 36.8017 15.9885C36.4023 16.5716 35.878 17.0627 35.2654 17.4285L35.5847 18.3538C36.1266 18.285 36.6586 18.1811 37.1782 18.0423C36.7127 18.5456 36.1991 19.0001 35.6369 19.3991L35.4131 19.5579L35.4269 19.832C35.4382 20.0559 35.446 20.2771 35.446 20.5042C35.446 27.4175 30.1849 35.3562 20.5908 35.3562C18.3532 35.3562 16.2405 34.8685 14.3437 33.9854C16.6978 33.8338 18.8629 32.963 20.6028 31.602L21.7065 30.7386L20.3055 30.7083Z" fill="#A966FF" stroke="#A966FF"/>
</svg>
