<svg xmlns="http://www.w3.org/2000/svg" viewBox="0 0 129.12 129.12"><defs><style>.cls-1{fill:#fff;}</style></defs><g id="Layer_2" data-name="Layer 2"><g id="Layer_1-2" data-name="Layer 1"><path class="cls-1" d="M64.56,0a64.56,64.56,0,1,0,64.56,64.56A64.55,64.55,0,0,0,64.56,0Zm38.59,103.21c-5.1-1.77-9.23-2.82-9.23-2.82a13.43,13.43,0,0,0-7.33-7.91c.18-.68.36-1.39.54-2.12h-.08c.63-2.45,1.15-4.91,1.57-7.29,1.39,0,4.91-.4,4.91-3.1,0-3.38.3-2.56,2.61-9.72s.41-10.57-1.62-10.85c-1.14-.16-2.46,1.67-3.41,3.31,1-5.1,2.65-15.42.73-23.15-2.66-10.68,0-16.26,0-16.26a3.6,3.6,0,0,1-3.2.6c-8.56-3-7.21-7-7.21-7-4.12,3.74-4.71,2.39-4.71,2.39C70.1,12.35,63.6,17.9,63.6,17.9c.76-1.46,0-4.25,0-4.25-2.28,5.37-5.31,6.48-5.31,6.48a4.83,4.83,0,0,0-6.4,1.79c-2.62,2.32-4.28,1.54-4.28,1.54.6-1.52,3-1.19,3-1.19-7.54-2.17-9.3,6.64-9.3,6.64C39.61,25.6,39.85,24,39.85,24a7.85,7.85,0,0,0-.08,7.48c-.92-1-3.29-1.37-3.58-1.4,5.5,2.61,4.61,7.12,4.61,7.12-5,7.26-3.94,19.14-3,25.07-.95-1.66-2.29-3.52-3.43-3.36-2,.29-3.94,3.7-1.63,10.86s2.62,6.34,2.62,9.71c0,2.6,3,3,4.3,3.11.39,2.55.91,5.22,1.59,7.88l-.11.06c.32,1.22.65,2.35,1,3.45-4.84,2.61-8,8.86-8,8.86A44.88,44.88,0,0,0,27,104.32a54.61,54.61,0,1,1,77.2-2.1c-.35.37-.71.74-1.07,1.1Z"/></g></g></svg>