<svg width="50" height="50" viewBox="0 0 50 50" fill="none" xmlns="http://www.w3.org/2000/svg">
<path d="M25 0C20.0554 0 15.222 1.46622 11.1107 4.21326C6.9995 6.9603 3.79518 10.8648 1.90299 15.4329C0.0108015 20.0011 -0.484282 25.0277 0.480349 29.8773C1.44498 34.7268 3.826 39.1814 7.32231 42.6777C10.8186 46.174 15.2732 48.555 20.1227 49.5196C24.9722 50.4843 29.9989 49.9892 34.5671 48.097C39.1352 46.2048 43.0397 43.0005 45.7867 38.8893C48.5338 34.778 50 29.9445 50 25C49.999 18.3699 47.3647 12.0117 42.6765 7.32346C37.9883 2.63528 31.6301 0.00102673 25 0V0ZM39.9434 39.9667C37.9685 39.2813 36.3693 38.8747 36.3693 38.8747C36.1337 38.1956 35.7598 37.5727 35.2712 37.0455C34.7827 36.5183 34.19 36.0981 33.5308 35.8116C33.6005 35.5483 33.6702 35.2734 33.7399 34.9907H33.7089C33.9529 34.042 34.1543 33.0894 34.3169 32.1678C34.8552 32.1678 36.2182 32.0129 36.2182 30.9673C36.2182 29.6585 36.3344 29.976 37.2289 27.2034C38.1234 24.4308 37.3877 23.1103 36.6016 23.0019C36.1601 22.9399 35.649 23.6485 35.2811 24.2836C35.6684 22.3087 36.3073 18.3124 35.5638 15.3191C34.5337 11.1834 35.5638 9.02261 35.5638 9.02261C35.3903 9.15653 35.1876 9.24741 34.9722 9.2878C34.7568 9.32819 34.5349 9.31693 34.3246 9.25496C31.0099 8.09325 31.5327 6.5443 31.5327 6.5443C29.9373 7.99257 29.7088 7.4698 29.7088 7.4698C27.1453 4.74752 24.6282 6.89669 24.6282 6.89669C24.9225 6.33132 24.6282 5.25093 24.6282 5.25093C23.7453 7.33039 22.572 7.74473 22.572 7.74473C22.1487 7.52114 21.6557 7.46839 21.1947 7.59734C20.7336 7.72629 20.3396 8.02712 20.0937 8.43789C19.0791 9.33628 18.4363 9.03423 18.4363 9.03423C18.6687 8.44563 19.598 8.57342 19.598 8.57342C16.6783 7.73312 15.9967 11.1447 15.9967 11.1447C15.3384 9.86292 15.4314 9.25496 15.4314 9.25496C15.1849 9.69684 15.053 10.1934 15.0476 10.6993C15.0422 11.2052 15.1635 11.7044 15.4004 12.1515C15.0441 11.7642 14.1264 11.621 14.0141 11.6094C16.1439 12.62 15.7992 14.3665 15.7992 14.3665C13.8631 17.1778 14.2735 21.7782 14.6375 24.0745C14.2697 23.4317 13.7508 22.7114 13.3093 22.7734C12.5348 22.8857 11.7836 24.2062 12.6781 26.9788C13.5726 29.7514 13.6927 29.4339 13.6927 30.7388C13.6927 31.7457 14.8544 31.9006 15.3578 31.9432C15.5088 32.9306 15.7102 33.9645 15.9735 34.9946L15.9309 35.0178C16.0548 35.4902 16.1826 35.9278 16.3181 36.3538C14.4439 37.3645 13.2202 39.7847 13.2202 39.7847C12.2844 39.9014 11.3597 40.0943 10.4554 40.3617C7.40019 37.4683 5.27763 33.7293 4.35924 29.6229C3.44084 25.5166 3.76836 21.2296 5.29991 17.3104C6.83145 13.3912 9.49737 10.018 12.9566 7.62236C16.4159 5.2267 20.5112 3.91749 24.7186 3.86222C28.9261 3.80696 33.0544 5.00814 36.5754 7.31211C40.0964 9.61609 42.85 12.9181 44.4839 16.7957C46.1179 20.6733 46.5579 24.9502 45.7477 29.0793C44.9374 33.2083 42.9138 37.0018 39.9357 39.9744L39.9434 39.9667Z" fill="#667EFF"/>
</svg>
