<svg width="14" height="15" viewBox="0 0 14 15" fill="none" xmlns="http://www.w3.org/2000/svg">
<g clip-path="url(#clip0)">
<path d="M13.2765 2.5H0.717664C0.322931 2.5 0 2.84614 0 3.26922V11.7308C0 12.1538 0.322931 12.5 0.717664 12.5H13.2765C13.6712 12.5 13.9942 12.1539 13.9942 11.7308V3.26922C13.9941 2.84614 13.6712 2.5 13.2765 2.5ZM13.0072 3.07688L7.40989 7.57694C7.30925 7.65903 7.15477 7.71039 6.99704 7.70963C6.83933 7.71039 6.68487 7.65903 6.58421 7.57694L0.986941 3.07688H13.0072ZM10.0173 7.87387L13.0673 11.9124C13.0703 11.9164 13.0741 11.9195 13.0773 11.9231H0.916779C0.920004 11.9193 0.923776 11.9164 0.926838 11.9124L3.97685 7.87387C4.0703 7.75003 4.05258 7.56848 3.93683 7.46808C3.8213 7.36791 3.65192 7.38689 3.55844 7.51076L0.538227 11.5098V3.43747L6.26144 8.03843C6.47657 8.21017 6.73831 8.28575 6.99701 8.28651C7.25535 8.28593 7.51731 8.21034 7.73257 8.03843L13.4558 3.43747V11.5098L10.4357 7.51076C10.3422 7.38692 10.1726 7.36788 10.0573 7.46808C9.94154 7.56824 9.92378 7.75003 10.0173 7.87387Z" fill="white"/>
</g>
<defs>
<clipPath id="clip0">
<rect width="13.9941" height="15" fill="white"/>
</clipPath>
</defs>
</svg>
