<svg width="14" height="15" viewBox="0 0 14 15" fill="none" xmlns="http://www.w3.org/2000/svg">
<g clip-path="url(#clip0)">
<path d="M13.6128 11.0085L11.6599 8.91519C10.9624 8.16759 9.77673 8.46666 9.49775 9.43852C9.2885 10.1114 8.59103 10.4852 7.96331 10.3356C6.56836 9.96184 4.68519 8.01807 4.33645 6.4481C4.12721 5.77522 4.54569 5.02762 5.17342 4.80336C6.08013 4.50432 6.35912 3.23339 5.66165 2.48579L3.70873 0.392493C3.15075 -0.130831 2.31378 -0.130831 1.82555 0.392493L0.500355 1.81294C-0.824842 3.30815 0.63985 7.27046 3.91797 10.7842C7.19609 14.298 10.8927 15.9427 12.2876 14.4475L13.6128 13.027C14.1011 12.4289 14.1011 11.5318 13.6128 11.0085Z" fill="#21468B"/>
</g>
<defs>
<clipPath id="clip0">
<rect width="13.9941" height="15" fill="white"/>
</clipPath>
</defs>
</svg>
