<svg width="14" height="15" viewBox="0 0 14 15" fill="none" xmlns="http://www.w3.org/2000/svg">
<g clip-path="url(#clip0)">
<path d="M13.6127 11.0085L11.6598 8.91519C10.9623 8.16759 9.77661 8.46666 9.49762 9.43852C9.28838 10.1114 8.59091 10.4852 7.96318 10.3356C6.56824 9.96184 4.68507 8.01807 4.33633 6.4481C4.12709 5.77522 4.54557 5.02762 5.1733 4.80336C6.08001 4.50432 6.359 3.23339 5.66153 2.48579L3.70861 0.392493C3.15063 -0.130831 2.31366 -0.130831 1.82543 0.392493L0.500233 1.81294C-0.824964 3.30815 0.639728 7.27046 3.91785 10.7842C7.19597 14.298 10.8926 15.9427 12.2875 14.4475L13.6127 13.027C14.101 12.4289 14.101 11.5318 13.6127 11.0085Z" fill="white"/>
</g>
<defs>
<clipPath id="clip0">
<rect width="13.9941" height="15" fill="white"/>
</clipPath>
</defs>
</svg>
