<svg width="30" height="30" viewBox="0 0 30 30" fill="none" xmlns="http://www.w3.org/2000/svg">
<path d="M15 3.51514C14.5146 3.51514 14.1211 3.90865 14.1211 4.39404C14.1211 4.87943 14.5146 5.27295 15 5.27295C17.9082 5.27295 20.2743 7.63861 20.2743 10.5464C20.2743 11.0318 20.6678 11.4253 21.1532 11.4253C21.6386 11.4253 22.0321 11.0318 22.0321 10.5464C22.0321 6.66936 18.8776 3.51514 15 3.51514Z" fill="#21468B"/>
<path d="M12.7339 0.235929C8.76301 1.06567 5.54328 4.25458 4.69608 8.25015C3.98071 11.6241 4.86225 15.0114 7.11465 17.5435C8.21569 18.7812 8.84709 20.415 8.84709 22.0305V23.7883C8.84709 24.9578 9.61274 25.9514 10.6689 26.2955C11.0163 28.3477 12.7975 29.9992 14.9994 29.9992C17.2007 29.9992 18.9825 28.3483 19.3299 26.2955C20.3861 25.9514 21.1518 24.9578 21.1518 23.7882V22.0304C21.1518 20.4117 21.7853 18.7976 22.9355 17.4853C24.6191 15.5646 25.5463 13.1002 25.5463 10.5461C25.5463 3.89189 19.4555 -1.16833 12.7339 0.235929ZM14.9994 28.2414C13.8696 28.2414 12.879 27.464 12.5132 26.4191H17.4856C17.1198 27.464 16.1292 28.2414 14.9994 28.2414ZM19.394 23.7883C19.394 24.2729 18.9997 24.6672 18.5151 24.6672H11.4838C10.9992 24.6672 10.6049 24.2729 10.6049 23.7883V22.9094H19.394V23.7883ZM21.6136 16.3268C20.3878 17.7252 19.6337 19.4116 19.4423 21.1516H10.5567C10.3656 19.4106 9.61338 17.7077 8.42815 16.3752C6.55092 14.2649 5.81738 11.4363 6.41569 8.61478C7.11406 5.32099 9.79766 2.6453 13.0935 1.95665C18.7199 0.78085 23.7885 5.00616 23.7885 10.5461C23.7885 12.6737 23.0161 14.7267 21.6136 16.3268Z" fill="#21468B"/>
<path d="M2.63672 10.5464H0.878906C0.393516 10.5464 0 10.9399 0 11.4253C0 11.9107 0.393516 12.3042 0.878906 12.3042H2.63672C3.12211 12.3042 3.51562 11.9107 3.51562 11.4253C3.51562 10.9399 3.12211 10.5464 2.63672 10.5464Z" fill="#21468B"/>
<path d="M2.99919 6.15175L1.75624 4.9088C1.41306 4.56556 0.856533 4.56556 0.513291 4.9088C0.170049 5.25204 0.170049 5.80851 0.513291 6.15175L1.75624 7.3947C2.09942 7.73794 2.65595 7.738 2.99919 7.3947C3.34243 7.05146 3.34243 6.49499 2.99919 6.15175Z" fill="#21468B"/>
<path d="M2.99919 15.4557C2.65595 15.1124 2.09942 15.1124 1.75624 15.4557L0.513291 16.6986C0.170049 17.0419 0.170049 17.5983 0.513291 17.9416C0.856475 18.2848 1.413 18.2849 1.75624 17.9416L2.99919 16.6986C3.34243 16.3554 3.34243 15.7989 2.99919 15.4557Z" fill="#21468B"/>
<path d="M29.1211 10.5464H27.3633C26.8779 10.5464 26.4844 10.9399 26.4844 11.4253C26.4844 11.9107 26.8779 12.3042 27.3633 12.3042H29.1211C29.6065 12.3042 30 11.9107 30 11.4253C30 10.9399 29.6065 10.5464 29.1211 10.5464Z" fill="#21468B"/>
<path d="M29.4836 4.9088C29.1404 4.56556 28.5839 4.56556 28.2406 4.9088L26.9977 6.15175C26.6544 6.49499 26.6544 7.05145 26.9977 7.3947C27.3409 7.73788 27.8974 7.73794 28.2406 7.3947L29.4836 6.15175C29.8268 5.80851 29.8268 5.25204 29.4836 4.9088Z" fill="#21468B"/>
<path d="M29.4836 16.6986L28.2406 15.4557C27.8974 15.1124 27.3409 15.1124 26.9977 15.4557C26.6544 15.7989 26.6544 16.3554 26.9977 16.6986L28.2406 17.9416C28.5838 18.2848 29.1403 18.2848 29.4836 17.9416C29.8268 17.5983 29.8268 17.0419 29.4836 16.6986Z" fill="#21468B"/>
</svg>
