<svg width="30" height="30" viewBox="0 0 30 30" fill="none" xmlns="http://www.w3.org/2000/svg">
<g clip-path="url(#clip0)">
<path d="M12.1218 23.0016C12.759 22.7538 13.477 22.3673 14.2792 21.8246C14.0216 20.9419 13.5459 20.1101 12.8511 19.4153C11.9474 18.5115 10.7917 17.9525 9.54269 17.8003C9.0082 18.8026 8.68622 19.6634 8.54688 20.3909C10.0711 20.7228 11.3604 21.6906 12.1218 23.0016Z" fill="#21468B"/>
<path d="M7.40816 29.9992C9.74467 29.9834 11.634 28.0851 11.634 25.7449C11.634 23.3948 9.72894 21.4897 7.3789 21.4897C5.03933 21.4897 3.13984 23.3883 3.12294 25.7239C3.12294 25.7226 3.12294 25.7216 3.12294 25.7216C3.12294 25.7216 3.12294 25.7224 3.12294 25.7245C3.12294 26.6938 1.84286 30 0 30H7.40816V29.9992Z" fill="#21468B"/>
<path d="M29.8692 0.108411L29.8692 0.108534L29.8572 0.0976359L29.8573 0.0975135C28.9128 -0.764527 20.8673 4.19257 14.7497 10.8637C12.7007 13.1194 11.2146 15.0455 10.2031 16.6645C11.5261 16.9272 12.7425 17.574 13.7178 18.5494C14.454 19.2856 14.9879 20.1486 15.3205 21.0686C16.8056 19.9202 18.5359 18.3023 20.5242 16.1341C26.6102 9.43419 30.8138 0.970514 29.8692 0.108411Z" fill="#21468B"/>
</g>
<defs>
<clipPath id="clip0">
<rect width="30" height="30" fill="white"/>
</clipPath>
</defs>
</svg>
