<svg width="30" height="30" viewBox="0 0 30 30" fill="none" xmlns="http://www.w3.org/2000/svg">
<path d="M30 6.875V2.57813C30 1.15655 28.8172 0 27.3633 0H2.63672C1.18283 0 0 1.15655 0 2.57813V6.875H30ZM20.2734 3.4375H25.5469C26.0323 3.4375 26.4258 3.82227 26.4258 4.29688C26.4258 4.77148 26.0323 5.15625 25.5469 5.15625H20.2734C19.788 5.15625 19.3945 4.77148 19.3945 4.29688C19.3945 3.82227 19.788 3.4375 20.2734 3.4375ZM11.4844 3.4375C11.9698 3.4375 12.3633 3.82227 12.3633 4.29688C12.3633 4.77148 11.9698 5.15625 11.4844 5.15625C10.999 5.15625 10.6055 4.77148 10.6055 4.29688C10.6055 3.82227 10.999 3.4375 11.4844 3.4375ZM7.96875 3.4375C8.45414 3.4375 8.84766 3.82227 8.84766 4.29688C8.84766 4.77148 8.45414 5.15625 7.96875 5.15625C7.48336 5.15625 7.08984 4.77148 7.08984 4.29688C7.08984 3.82227 7.48336 3.4375 7.96875 3.4375ZM4.45312 3.4375C4.93852 3.4375 5.33203 3.82227 5.33203 4.29688C5.33203 4.77148 4.93852 5.15625 4.45312 5.15625C3.96773 5.15625 3.57422 4.77148 3.57422 4.29688C3.57422 3.82227 3.96773 3.4375 4.45312 3.4375Z" fill="#21468B"/>
<path d="M0 8.75V27.3438C0 28.8084 1.18283 30 2.63672 30H27.3633C28.8172 30 30 28.8084 30 27.3438V8.75H0ZM10.2756 21.3399C10.6547 21.6453 10.7161 22.2025 10.4129 22.5843C10.1097 22.9661 9.55652 23.0281 9.17754 22.7226L4.78301 19.1809C4.34361 18.8269 4.34332 18.1524 4.78301 17.7981L9.17754 14.2565C9.55641 13.951 10.1096 14.0129 10.4129 14.3947C10.7161 14.7766 10.6547 15.3338 10.2756 15.6392L6.73898 18.4896L10.2756 21.3399ZM18.4445 12.6405L13.1711 25.0363C12.9799 25.4857 12.4634 25.694 12.0171 25.5013C11.5709 25.3087 11.3642 24.7881 11.5554 24.3387L16.8289 11.9429C17.0201 11.4934 17.5368 11.2852 17.983 11.4779C18.4291 11.6705 18.6358 12.191 18.4445 12.6405ZM25.217 19.181L20.8225 22.7226C20.4441 23.0277 19.8908 22.9668 19.5871 22.5844C19.2839 22.2025 19.3453 21.6453 19.7244 21.3399L23.261 18.4896L19.7244 15.6393C19.3453 15.3338 19.2839 14.7767 19.5871 14.3948C19.8903 14.013 20.4434 13.9511 20.8225 14.2566L25.217 17.7983C25.6564 18.1522 25.6567 18.8267 25.217 19.181Z" fill="#21468B"/>
</svg>
