<svg width="30" height="30" viewBox="0 0 30 30" fill="none" xmlns="http://www.w3.org/2000/svg">
<path d="M29.0429 27.3252L21.9028 19.8992C23.7386 17.7169 24.7445 14.971 24.7445 12.1125C24.7445 5.43377 19.3107 0 12.632 0C5.9533 0 0.519531 5.43377 0.519531 12.1125C0.519531 18.7912 5.9533 24.225 12.632 24.225C15.1393 24.225 17.5286 23.4687 19.5714 22.0331L26.7657 29.5155C27.0664 29.8278 27.4709 30 27.9043 30C28.3145 30 28.7037 29.8436 28.9991 29.5592C29.6269 28.9552 29.6469 27.9535 29.0429 27.3252ZM12.632 3.15978C17.5686 3.15978 21.5847 7.17586 21.5847 12.1125C21.5847 17.0491 17.5686 21.0652 12.632 21.0652C7.69539 21.0652 3.67931 17.0491 3.67931 12.1125C3.67931 7.17586 7.69539 3.15978 12.632 3.15978Z" fill="#21468B"/>
</svg>
